<?xml version="1.0" standalone="no"?>
<!DOCTYPE svg PUBLIC "-//W3C//DTD SVG 20010904//EN"
 "http://www.w3.org/TR/2001/REC-SVG-20010904/DTD/svg10.dtd">
<svg version="1.0" xmlns="http://www.w3.org/2000/svg"
 width="512.000000pt" height="512.000000pt" viewBox="0 0 512.000000 512.000000"
 preserveAspectRatio="xMidYMid meet">

<g transform="translate(0.000000,512.000000) scale(0.100000,-0.100000)"
fill="#000000" stroke="none">
<path d="M320 4947 c-49 -16 -133 -102 -148 -153 -17 -60 -17 -3528 0 -3588
16 -55 99 -138 154 -154 31 -9 243 -12 843 -12 504 0 801 -4 801 -10 0 -5 -38
-148 -84 -317 -46 -169 -89 -327 -95 -350 l-12 -43 -89 0 -90 0 0 -80 0 -80
960 0 960 0 0 80 0 80 -90 0 -89 0 -12 43 c-6 23 -49 181 -95 350 -46 169 -84
312 -84 317 0 6 298 10 803 10 914 0 864 -4 940 80 24 26 49 66 55 88 17 57
17 3527 0 3584 -6 22 -31 62 -55 88 -79 88 145 80 -2337 79 -1574 -1 -2211 -4
-2236 -12z m4455 -172 l25 -24 0 -1496 0 -1495 -520 0 -520 0 0 54 0 54 -92
40 c-51 23 -113 49 -138 60 -41 17 -48 26 -72 85 l-27 65 55 138 55 137 -134
134 -134 134 -136 -54 -137 -55 -66 26 c-61 24 -68 30 -86 72 -11 25 -37 87
-60 138 l-40 92 -190 -2 -190 -3 -57 -134 -58 -135 -65 -28 -65 -27 -138 55
-138 55 -134 -134 -134 -134 55 -138 55 -138 -27 -65 -28 -65 -137 -60 -137
-60 0 -53 0 -54 -520 0 -520 0 0 1495 0 1496 25 24 24 25 2191 0 2191 0 24
-25z m-2080 -2174 l50 -119 126 -52 126 -51 114 45 c62 25 118 46 123 46 14 0
116 -102 116 -115 0 -6 -21 -62 -46 -124 l-45 -114 51 -126 52 -126 121 -52
122 -52 -207 -1 -208 0 0 23 c0 13 -9 53 -21 88 -86 267 -334 449 -609 449
-228 0 -445 -128 -555 -325 -36 -65 -75 -174 -75 -212 l0 -23 -207 0 -208 1
122 52 121 52 52 126 51 126 -45 114 c-25 62 -46 118 -46 123 0 14 102 116
115 116 6 0 62 -21 124 -46 l114 -45 126 51 126 51 50 120 50 119 85 0 85 0
50 -119z m-20 -456 c87 -23 168 -70 230 -136 55 -58 108 -153 121 -216 l7 -33
-473 0 -472 0 6 33 c13 63 66 158 121 216 120 126 297 178 460 136z m2125
-720 c0 -173 0 -176 -25 -200 l-24 -25 -2191 0 -2191 0 -24 25 c-25 24 -25 27
-25 200 l0 175 2240 0 2240 0 0 -175z m-1809 -427 c6 -24 49 -182 95 -351 46
-169 84 -312 84 -317 0 -6 -228 -10 -610 -10 -382 0 -610 4 -610 10 0 5 38
148 84 317 46 169 89 327 95 351 l12 42 419 0 419 0 12 -42z"/>
<path d="M720 4627 c-49 -16 -133 -102 -148 -153 -17 -59 -17 -1209 0 -1268
16 -55 99 -138 154 -154 31 -9 233 -12 796 -12 859 0 816 -4 891 80 24 26 49
66 55 88 17 56 17 1208 0 1264 -6 22 -31 62 -55 88 -75 84 -31 80 -897 79
-524 -1 -772 -4 -796 -12z m1575 -172 c21 -20 25 -34 25 -80 l0 -55 -800 0
-800 0 0 55 c0 46 4 60 25 80 l24 25 751 0 751 0 24 -25z m25 -750 l0 -456
-25 -24 -24 -25 -751 0 -751 0 -24 25 -25 24 0 456 0 455 800 0 800 0 0 -455z"/>
<path d="M990 3825 l-145 -145 148 -147 147 -148 57 58 58 57 -90 90 -90 90
88 88 c48 48 87 92 87 98 0 13 -92 104 -105 104 -6 0 -75 -65 -155 -145z"/>
<path d="M1837 3922 c-26 -26 -47 -52 -47 -57 0 -5 39 -49 87 -97 l88 -88 -90
-90 -90 -90 58 -57 57 -58 147 148 148 147 -145 145 c-80 80 -149 145 -155
145 -6 0 -32 -22 -58 -48z"/>
<path d="M1446 3674 c-44 -110 -75 -199 -70 -204 5 -4 37 -20 72 -34 l63 -25
14 32 c81 195 143 362 137 368 -5 6 -130 59 -137 59 -1 0 -36 -88 -79 -196z"/>
<path d="M3365 4626 c-367 -71 -647 -354 -711 -718 -48 -277 45 -569 245 -769
157 -157 356 -244 589 -256 l112 -6 0 402 0 401 401 0 402 0 -6 113 c-21 400
-273 713 -662 819 -92 25 -276 32 -370 14z m367 -179 c117 -37 203 -90 294
-181 112 -112 183 -245 200 -377 l7 -49 -339 0 -339 0 -237 237 c-131 131
-238 241 -238 246 0 15 121 85 193 111 101 38 156 46 277 41 75 -2 127 -10
182 -28z m-530 -484 l238 -238 0 -339 0 -339 -51 7 c-66 9 -165 45 -236 87
-83 49 -212 180 -258 262 -106 192 -122 415 -45 615 28 74 93 182 108 182 4 0
114 -107 244 -237z"/>
<path d="M3760 3119 l0 -402 108 6 c126 7 200 25 298 73 177 87 317 258 369
450 9 32 19 107 22 167 l6 107 -402 0 -401 0 0 -401z m630 218 c0 -34 -36
-133 -67 -186 -36 -62 -114 -143 -175 -182 -56 -36 -167 -79 -203 -79 l-25 0
0 235 0 235 235 0 235 0 0 -23z"/>
<path d="M560 2720 l0 -80 480 0 480 0 0 80 0 80 -480 0 -480 0 0 -80z"/>
<path d="M560 2400 l0 -80 360 0 360 0 0 80 0 80 -360 0 -360 0 0 -80z"/>
<path d="M3760 2400 l0 -80 400 0 400 0 0 80 0 80 -400 0 -400 0 0 -80z"/>
<path d="M560 2080 l0 -80 360 0 360 0 0 80 0 80 -360 0 -360 0 0 -80z"/>
<path d="M3760 2080 l0 -80 400 0 400 0 0 80 0 80 -400 0 -400 0 0 -80z"/>
</g>
</svg>
